<svg xmlns="http://www.w3.org/2000/svg" viewBox="0 0 1200 900" style="background:#0f172a;font-family:'Segoe UI',system-ui,sans-serif">
  <defs>
    <linearGradient id="g1" x1="0" y1="0" x2="0" y2="1">
      <stop offset="0%" stop-color="#3b82f6"/>
      <stop offset="100%" stop-color="#1d4ed8"/>
    </linearGradient>
    <linearGradient id="g2" x1="0" y1="0" x2="0" y2="1">
      <stop offset="0%" stop-color="#10b981"/>
      <stop offset="100%" stop-color="#059669"/>
    </linearGradient>
    <linearGradient id="g3" x1="0" y1="0" x2="0" y2="1">
      <stop offset="0%" stop-color="#f59e0b"/>
      <stop offset="100%" stop-color="#d97706"/>
    </linearGradient>
    <linearGradient id="g4" x1="0" y1="0" x2="0" y2="1">
      <stop offset="0%" stop-color="#8b5cf6"/>
      <stop offset="100%" stop-color="#7c3aed"/>
    </linearGradient>
    <linearGradient id="g5" x1="0" y1="0" x2="0" y2="1">
      <stop offset="0%" stop-color="#ec4899"/>
      <stop offset="100%" stop-color="#db2777"/>
    </linearGradient>
    <linearGradient id="g6" x1="0" y1="0" x2="0" y2="1">
      <stop offset="0%" stop-color="#06b6d4"/>
      <stop offset="100%" stop-color="#0891b2"/>
    </linearGradient>
    <filter id="sh" x="-2%" y="-2%" width="104%" height="108%">
      <feDropShadow dx="0" dy="3" stdDeviation="4" flood-color="#000" flood-opacity="0.25"/>
    </filter>
    <marker id="arrow" viewBox="0 0 10 10" refX="10" refY="5" markerWidth="6" markerHeight="6" orient="auto-start-reverse">
      <path d="M 0 2 L 10 5 L 0 8 z" fill="#64748b"/>
    </marker>
  </defs>

  <!-- Background grid -->
  <pattern id="grid" width="30" height="30" patternUnits="userSpaceOnUse">
    <circle cx="1" cy="1" r="0.8" fill="#1e293b"/>
  </pattern>
  <rect width="1200" height="900" fill="url(#grid)"/>

  <!-- Title -->
  <rect x="380" y="15" width="440" height="45" rx="10" fill="url(#g1)" filter="url(#sh)"/>
  <text x="600" y="44" text-anchor="middle" fill="#fff" font-size="20" font-weight="700" letter-spacing="1">PIONEER ADHESIVES ROUTING SYSTEM</text>
  <text x="600" y="70" text-anchor="middle" fill="#64748b" font-size="13" font-weight="500">MODULAR ARCHITECTURE DIAGRAM</text>

  <!-- ══════════ LAYER 1: PRESENTATION / HTML ══════════ -->
  <rect x="30" y="95" width="1140" height="70" rx="12" fill="#1e293b" stroke="#3b82f6" stroke-width="1.5" filter="url(#sh)"/>
  <rect x="45" y="108" width="160" height="44" rx="8" fill="url(#g1)"/>
  <text x="125" y="126" text-anchor="middle" fill="#fff" font-size="11" font-weight="600">PRESENTATION LAYER</text>
  <text x="125" y="142" text-anchor="middle" fill="#93bbfc" font-size="9">HTML Shell</text>

  <rect x="220" y="108" width="180" height="44" rx="8" fill="#1e3a5f" stroke="#3b82f6" stroke-width="1"/>
  <text x="310" y="126" text-anchor="middle" fill="#93bbfc" font-size="10" font-weight="600">index.html</text>
  <text x="310" y="142" text-anchor="middle" fill="#64748b" font-size="9">Entry Point &amp; DOM Shell</text>

  <rect x="415" y="108" width="200" height="44" rx="8" fill="#1e3a5f" stroke="#3b82f6" stroke-width="1"/>
  <text x="515" y="126" text-anchor="middle" fill="#93bbfc" font-size="10" font-weight="600">View Sections (5)</text>
  <text x="515" y="142" text-anchor="middle" fill="#64748b" font-size="9">Add | Lookup | Update | Manage | AllData</text>

  <rect x="630" y="108" width="200" height="44" rx="8" fill="#1e3a5f" stroke="#3b82f6" stroke-width="1"/>
  <text x="730" y="126" text-anchor="middle" fill="#93bbfc" font-size="10" font-weight="600">Navigation Tabs</text>
  <text x="730" y="142" text-anchor="middle" fill="#64748b" font-size="9">Tab Switching UI Component</text>

  <rect x="845" y="108" width="200" height="44" rx="8" fill="#1e3a5f" stroke="#3b82f6" stroke-width="1"/>
  <text x="945" y="126" text-anchor="middle" fill="#93bbfc" font-size="10" font-weight="600">Form Templates</text>
  <text x="945" y="142" text-anchor="middle" fill="#64748b" font-size="9">Routing Table | Inputs | Search</text>

  <text x="1095" y="138" text-anchor="middle" fill="#3b82f6" font-size="18" font-weight="700">L1</text>

  <!-- ══════════ LAYER 2: STYLING / CSS ══════════ -->
  <rect x="30" y="180" width="1140" height="70" rx="12" fill="#1e293b" stroke="#10b981" stroke-width="1.5" filter="url(#sh)"/>
  <rect x="45" y="193" width="160" height="44" rx="8" fill="url(#g2)"/>
  <text x="125" y="211" text-anchor="middle" fill="#fff" font-size="11" font-weight="600">STYLING LAYER</text>
  <text x="125" y="227" text-anchor="middle" fill="#a7f3d0" font-size="9">CSS Modules</text>

  <rect x="220" y="193" width="180" height="44" rx="8" fill="#064e3b" stroke="#10b981" stroke-width="1"/>
  <text x="310" y="211" text-anchor="middle" fill="#a7f3d0" font-size="10" font-weight="600">base.css</text>
  <text x="310" y="227" text-anchor="middle" fill="#64748b" font-size="9">Resets, Variables, Fonts</text>

  <rect x="415" y="193" width="200" height="44" rx="8" fill="#064e3b" stroke="#10b981" stroke-width="1"/>
  <text x="515" y="211" text-anchor="middle" fill="#a7f3d0" font-size="10" font-weight="600">layout.css</text>
  <text x="515" y="227" text-anchor="middle" fill="#64748b" font-size="9">Grid, Flexbox, Structure</text>

  <rect x="630" y="193" width="200" height="44" rx="8" fill="#064e3b" stroke="#10b981" stroke-width="1"/>
  <text x="730" y="211" text-anchor="middle" fill="#a7f3d0" font-size="10" font-weight="600">components.css</text>
  <text x="730" y="227" text-anchor="middle" fill="#64748b" font-size="9">Tables, Buttons, Forms, Tabs</text>

  <rect x="845" y="193" width="200" height="44" rx="8" fill="#064e3b" stroke="#10b981" stroke-width="1"/>
  <text x="945" y="211" text-anchor="middle" fill="#a7f3d0" font-size="10" font-weight="600">main.css</text>
  <text x="945" y="227" text-anchor="middle" fill="#64748b" font-size="9">CSS Aggregator (@import)</text>

  <text x="1095" y="223" text-anchor="middle" fill="#10b981" font-size="18" font-weight="700">L2</text>

  <!-- ══════════ LAYER 3: LOGIC / JS CORE ══════════ -->
  <rect x="30" y="265" width="1140" height="70" rx="12" fill="#1e293b" stroke="#f59e0b" stroke-width="1.5" filter="url(#sh)"/>
  <rect x="45" y="278" width="160" height="44" rx="8" fill="url(#g3)"/>
  <text x="125" y="296" text-anchor="middle" fill="#fff" font-size="11" font-weight="600">LOGIC LAYER</text>
  <text x="125" y="312" text-anchor="middle" fill="#fde68a" font-size="9">JavaScript Core</text>

  <rect x="220" y="278" width="180" height="44" rx="8" fill="#451a03" stroke="#f59e0b" stroke-width="1"/>
  <text x="310" y="296" text-anchor="middle" fill="#fde68a" font-size="10" font-weight="600">main.js</text>
  <text x="310" y="312" text-anchor="middle" fill="#64748b" font-size="9">Entry Point &amp; Initializer</text>

  <rect x="415" y="278" width="200" height="44" rx="8" fill="#451a03" stroke="#f59e0b" stroke-width="1"/>
  <text x="515" y="296" text-anchor="middle" fill="#fde68a" font-size="10" font-weight="600">state.js</text>
  <text x="515" y="312" text-anchor="middle" fill="#64748b" font-size="9">Global State &amp; Constants</text>

  <rect x="630" y="278" width="200" height="44" rx="8" fill="#451a03" stroke="#f59e0b" stroke-width="1"/>
  <text x="730" y="296" text-anchor="middle" fill="#fde68a" font-size="10" font-weight="600">utils.js</text>
  <text x="730" y="312" text-anchor="middle" fill="#64748b" font-size="9">Helpers &amp; Formatters</text>

  <rect x="845" y="278" width="200" height="44" rx="8" fill="#451a03" stroke="#f59e0b" stroke-width="1"/>
  <text x="945" y="296" text-anchor="middle" fill="#fde68a" font-size="10" font-weight="600">tabs.js</text>
  <text x="945" y="312" text-anchor="middle" fill="#64748b" font-size="9">Tab Controller &amp; Router</text>

  <text x="1095" y="308" text-anchor="middle" fill="#f59e0b" font-size="18" font-weight="700">L3</text>

  <!-- ══════════ LAYER 4: FEATURE MODULES ══════════ -->
  <rect x="30" y="350" width="1140" height="165" rx="12" fill="#1e293b" stroke="#8b5cf6" stroke-width="1.5" filter="url(#sh)"/>
  <rect x="45" y="363" width="160" height="44" rx="8" fill="url(#g4)"/>
  <text x="125" y="381" text-anchor="middle" fill="#fff" font-size="11" font-weight="600">FEATURE MODULES</text>
  <text x="125" y="397" text-anchor="middle" fill="#ddd6fe" font-size="9">JS Business Logic</text>
  <text x="125" y="495" text-anchor="middle" fill="#7c3aed" font-size="28" font-weight="800">L4</text>

  <!-- Module cards -->
  <rect x="220" y="363" width="200" height="68" rx="8" fill="#2e1065" stroke="#8b5cf6" stroke-width="1"/>
  <text x="320" y="383" text-anchor="middle" fill="#ddd6fe" font-size="11" font-weight="700">routing-form.js</text>
  <text x="320" y="400" text-anchor="middle" fill="#94a3b8" font-size="9">Add/Edit Form Handling</text>
  <text x="320" y="415" text-anchor="middle" fill="#64748b" font-size="8">Row Mgmt | Field Sync | Save</text>

  <rect x="435" y="363" width="200" height="68" rx="8" fill="#2e1065" stroke="#8b5cf6" stroke-width="1"/>
  <text x="535" y="383" text-anchor="middle" fill="#ddd6fe" font-size="11" font-weight="700">search.js</text>
  <text x="535" y="400" text-anchor="middle" fill="#94a3b8" font-size="9">Database Search Engine</text>
  <text x="535" y="415" text-anchor="middle" fill="#64748b" font-size="8">Lookup | Update | Load Data</text>

  <rect x="650" y="363" width="200" height="68" rx="8" fill="#2e1065" stroke="#8b5cf6" stroke-width="1"/>
  <text x="750" y="383" text-anchor="middle" fill="#ddd6fe" font-size="11" font-weight="700">calculations.js</text>
  <text x="750" y="400" text-anchor="middle" fill="#94a3b8" font-size="9">Math &amp; Formula Engine</text>
  <text x="750" y="415" text-anchor="middle" fill="#64748b" font-size="8">Run Time | Labor | MC | DL/VOH/FOH</text>

  <rect x="865" y="363" width="200" height="68" rx="8" fill="#2e1065" stroke="#8b5cf6" stroke-width="1"/>
  <text x="965" y="383" text-anchor="middle" fill="#ddd6fe" font-size="11" font-weight="700">manage-activities.js</text>
  <text x="965" y="400" text-anchor="middle" fill="#94a3b8" font-size="9">Line Activity CRUD</text>
  <text x="965" y="415" text-anchor="middle" fill="#64748b" font-size="8">Add | Edit | Delete per Line</text>

  <rect x="220" y="443" width="200" height="60" rx="8" fill="#2e1065" stroke="#8b5cf6" stroke-width="1"/>
  <text x="320" y="465" text-anchor="middle" fill="#ddd6fe" font-size="11" font-weight="700">all-data.js</text>
  <text x="320" y="482" text-anchor="middle" fill="#94a3b8" font-size="9">Paginated Table View</text>
  <text x="320" y="495" text-anchor="middle" fill="#64748b" font-size="8">Pagination | Sort | View Details</text>

  <rect x="435" y="443" width="200" height="60" rx="8" fill="#2e1065" stroke="#8b5cf6" stroke-width="1"/>
  <text x="535" y="465" text-anchor="middle" fill="#ddd6fe" font-size="11" font-weight="700">view-controller.js</text>
  <text x="535" y="482" text-anchor="middle" fill="#94a3b8" font-size="9">View State Manager</text>
  <text x="535" y="495" text-anchor="middle" fill="#64748b" font-size="8">ReadOnly | Editable | Hidden</text>

  <rect x="650" y="443" width="200" height="60" rx="8" fill="#2e1065" stroke="#8b5cf6" stroke-width="1"/>
  <text x="750" y="465" text-anchor="middle" fill="#ddd6fe" font-size="11" font-weight="700">mock-db.js</text>
  <text x="750" y="482" text-anchor="middle" fill="#94a3b8" font-size="9">In-Memory Data Store</text>
  <text x="750" y="495" text-anchor="middle" fill="#64748b" font-size="8">Routing DB | Line Activities</text>

  <!-- ══════════ LAYER 5: DATA / ASSETS ══════════ -->
  <rect x="30" y="530" width="1140" height="70" rx="12" fill="#1e293b" stroke="#ec4899" stroke-width="1.5" filter="url(#sh)"/>
  <rect x="45" y="543" width="160" height="44" rx="8" fill="url(#g5)"/>
  <text x="125" y="561" text-anchor="middle" fill="#fff" font-size="11" font-weight="600">DATA LAYER</text>
  <text x="125" y="577" text-anchor="middle" fill="#fbcfe8" font-size="9">Static Resources</text>

  <rect x="220" y="543" width="180" height="44" rx="8" fill="#500724" stroke="#ec4899" stroke-width="1"/>
  <text x="310" y="561" text-anchor="middle" fill="#fbcfe8" font-size="10" font-weight="600">assets/fonts/</text>
  <text x="310" y="577" text-anchor="middle" fill="#64748b" font-size="9">Typography Files</text>

  <rect x="415" y="543" width="200" height="44" rx="8" fill="#500724" stroke="#ec4899" stroke-width="1"/>
  <text x="515" y="561" text-anchor="middle" fill="#fbcfe8" font-size="10" font-weight="600">assets/icons/</text>
  <text x="515" y="577" text-anchor="middle" fill="#64748b" font-size="9">SVG/Icon Assets</text>

  <rect x="630" y="543" width="200" height="44" rx="8" fill="#500724" stroke="#ec4899" stroke-width="1"/>
  <text x="730" y="561" text-anchor="middle" fill="#fbcfe8" font-size="10" font-weight="600">assets/images/</text>
  <text x="730" y="577" text-anchor="middle" fill="#64748b" font-size="9">Logo, Photos, Media</text>

  <rect x="845" y="543" width="200" height="44" rx="8" fill="#500724" stroke="#ec4899" stroke-width="1"/>
  <text x="945" y="561" text-anchor="middle" fill="#fbcfe8" font-size="10" font-weight="600">Mock JSON Data</text>
  <text x="945" y="577" text-anchor="middle" fill="#64748b" font-size="9">Sample Routing Records</text>

  <text x="1095" y="573" text-anchor="middle" fill="#ec4899" font-size="18" font-weight="700">L5</text>

  <!-- ══════════ DATA FLOW ARROWS ══════════ -->
  <line x1="310" y1="165" x2="310" y2="193" stroke="#64748b" stroke-width="1.5" marker-end="url(#arrow)" stroke-dasharray="4"/>
  <line x1="515" y1="165" x2="515" y2="193" stroke="#64748b" stroke-width="1.5" marker-end="url(#arrow)" stroke-dasharray="4"/>
  <line x1="730" y1="165" x2="730" y2="193" stroke="#64748b" stroke-width="1.5" marker-end="url(#arrow)" stroke-dasharray="4"/>
  <line x1="945" y1="165" x2="945" y2="193" stroke="#64748b" stroke-width="1.5" marker-end="url(#arrow)" stroke-dasharray="4"/>

  <line x1="310" y1="250" x2="310" y2="278" stroke="#64748b" stroke-width="1.5" marker-end="url(#arrow)" stroke-dasharray="4"/>
  <line x1="515" y1="250" x2="515" y2="278" stroke="#64748b" stroke-width="1.5" marker-end="url(#arrow)" stroke-dasharray="4"/>
  <line x1="730" y1="250" x2="730" y2="278" stroke="#64748b" stroke-width="1.5" marker-end="url(#arrow)" stroke-dasharray="4"/>
  <line x1="945" y1="250" x2="945" y2="278" stroke="#64748b" stroke-width="1.5" marker-end="url(#arrow)" stroke-dasharray="4"/>

  <line x1="310" y1="335" x2="320" y2="363" stroke="#64748b" stroke-width="1.5" marker-end="url(#arrow)" stroke-dasharray="4"/>
  <line x1="515" y1="335" x2="535" y2="363" stroke="#64748b" stroke-width="1.5" marker-end="url(#arrow)" stroke-dasharray="4"/>
  <line x1="730" y1="335" x2="750" y2="363" stroke="#64748b" stroke-width="1.5" marker-end="url(#arrow)" stroke-dasharray="4"/>
  <line x1="945" y1="335" x2="965" y2="363" stroke="#64748b" stroke-width="1.5" marker-end="url(#arrow)" stroke-dasharray="4"/>

  <!-- Feature to Data arrows -->
  <line x1="750" y1="503" x2="750" y2="530" stroke="#64748b" stroke-width="1.5" marker-end="url(#arrow)" stroke-dasharray="4"/>
  <line x1="945" y1="543" x2="965" y2="530" stroke="#64748b" stroke-width="1.5" marker-start="url(#arrow)" stroke-dasharray="4"/>

  <!-- ══════════ LEGEND ══════════ -->
  <rect x="30" y="625" width="540" height="120" rx="12" fill="#1e293b" stroke="#334155" stroke-width="1" filter="url(#sh)"/>
  <text x="300" y="650" text-anchor="middle" fill="#94a3b8" font-size="14" font-weight="700" letter-spacing="1">LEGEND</text>

  <rect x="50" y="665" width="18" height="18" rx="4" fill="url(#g1)"/>
  <text x="78" y="678" fill="#cbd5e1" font-size="11">HTML Structure</text>
  <rect x="180" y="665" width="18" height="18" rx="4" fill="url(#g2)"/>
  <text x="208" y="678" fill="#cbd5e1" font-size="11">CSS Styling</text>
  <rect x="290" y="665" width="18" height="18" rx="4" fill="url(#g3)"/>
  <text x="318" y="678" fill="#cbd5e1" font-size="11">JS Core / Entry</text>
  <rect x="430" y="665" width="18" height="18" rx="4" fill="url(#g4)"/>
  <text x="458" y="678" fill="#cbd5e1" font-size="11">Feature Modules</text>

  <rect x="50" y="695" width="18" height="18" rx="4" fill="url(#g5)"/>
  <text x="78" y="708" fill="#cbd5e1" font-size="11">Static Assets</text>
  <line x1="200" y1="704" x2="260" y2="704" stroke="#64748b" stroke-width="1.5" marker-end="url(#arrow)" stroke-dasharray="4"/>
  <text x="270" y="708" fill="#64748b" font-size="10">Module Dependency Flow</text>

  <rect x="50" y="715" width="18" height="18" rx="4" fill="#1e293b" stroke="#334155" stroke-width="1"/>
  <text x="78" y="728" fill="#cbd5e1" font-size="11">Folder/Directory</text>

  <!-- ══════════ FOLDER STRUCTURE ══════════ -->
  <rect x="590" y="625" width="580" height="255" rx="12" fill="#0b111a" stroke="#334155" stroke-width="1" filter="url(#sh)"/>
  <text x="880" y="650" text-anchor="middle" fill="#94a3b8" font-size="14" font-weight="700" letter-spacing="1">FOLDER STRUCTURE</text>

  <!-- Tree lines -->
  <text x="610" y="680" fill="#64748b" font-family="monospace" font-size="12">pioneer-routing-system/</text>

  <text x="625" y="700" fill="#475569" font-family="monospace" font-size="11">├── index.html</text>
  <text x="720" y="700" fill="#334155" font-size="9"># Main Entry Point</text>

  <text x="625" y="715" fill="#475569" font-family="monospace" font-size="11">├── css/</text>
  <text x="720" y="715" fill="#334155" font-size="9"># Stylesheets</text>

  <text x="640" y="730" fill="#3b82f6" font-family="monospace" font-size="11">│   ├── base.css</text>
  <text x="780" y="730" fill="#334155" font-size="9"># Resets &amp; Variables</text>

  <text x="640" y="745" fill="#3b82f6" font-family="monospace" font-size="11">│   ├── layout.css</text>
  <text x="780" y="745" fill="#334155" font-size="9"># Grid/Flexbox Layout</text>

  <text x="640" y="760" fill="#3b82f6" font-family="monospace" font-size="11">│   ├── components.css</text>
  <text x="780" y="760" fill="#334155" font-size="9"># UI Components</text>

  <text x="640" y="775" fill="#3b82f6" font-family="monospace" font-size="11">│   └── main.css</text>
  <text x="780" y="775" fill="#334155" font-size="9"># Aggregator (@import)</text>

  <text x="625" y="795" fill="#475569" font-family="monospace" font-size="11">├── js/</text>
  <text x="720" y="795" fill="#334155" font-size="9"># Scripts</text>

  <text x="640" y="810" fill="#f59e0b" font-family="monospace" font-size="11">│   ├── main.js</text>
  <text x="780" y="810" fill="#334155" font-size="9"># Entry Point</text>

  <text x="640" y="825" fill="#475569" font-family="monospace" font-size="11">│   └── modules/</text>
  <text x="780" y="825" fill="#334155" font-size="9"># Feature Modules</text>

  <text x="655" y="840" fill="#10b981" font-family="monospace" font-size="11">│       ├── state.js</text>
  <text x="810" y="840" fill="#334155" font-size="9"># App State</text>

  <text x="655" y="855" fill="#10b981" font-family="monospace" font-size="11">│       ├── tabs.js</text>
  <text x="810" y="855" fill="#334155" font-size="9"># Tab Controller</text>

  <text x="655" y="870" fill="#10b981" font-family="monospace" font-size="11">│       ├── routing-form.js</text>
  <text x="810" y="870" fill="#334155" font-size="9"># Form Handler</text>

  <text x="855" y="680" fill="#10b981" font-family="monospace" font-size="11">├── calculations.js</text>
  <text x="1005" y="680" fill="#334155" font-size="9"># Math Engine</text>

  <text x="855" y="695" fill="#10b981" font-family="monospace" font-size="11">├── search.js</text>
  <text x="1005" y="695" fill="#334155" font-size="9"># Search Engine</text>

  <text x="855" y="710" fill="#10b981" font-family="monospace" font-size="11">├── manage-activities.js</text>
  <text x="1020" y="710" fill="#334155" font-size="9"># Activity CRUD</text>

  <text x="855" y="725" fill="#10b981" font-family="monospace" font-size="11">├── all-data.js</text>
  <text x="1005" y="725" fill="#334155" font-size="9"># Paginated View</text>

  <text x="855" y="740" fill="#10b981" font-family="monospace" font-size="11">├── view-controller.js</text>
  <text x="1020" y="740" fill="#334155" font-size="9"># View States</text>

  <text x="855" y="755" fill="#10b981" font-family="monospace" font-size="11">├── mock-db.js</text>
  <text x="1005" y="755" fill="#334155" font-size="9"># Mock Database</text>

  <text x="855" y="770" fill="#10b981" font-family="monospace" font-size="11">└── utils.js</text>
  <text x="1005" y="770" fill="#334155" font-size="9"># Utilities</text>

  <text x="855" y="795" fill="#475569" font-family="monospace" font-size="11">└── assets/</text>
  <text x="960" y="795" fill="#334155" font-size="9"># Static Media</text>

  <text x="870" y="810" fill="#8b5cf6" font-family="monospace" font-size="11">├── fonts/</text>
  <text x="870" y="825" fill="#8b5cf6" font-family="monospace" font-size="11">├── icons/</text>
  <text x="870" y="840" fill="#8b5cf6" font-family="monospace" font-size="11">└── images/</text>

  <!-- ══════════ FLOW DIAGRAM ══════════ -->
  <rect x="30" y="765" width="540" height="115" rx="12" fill="#0b111a" stroke="#334155" stroke-width="1" filter="url(#sh)"/>
  <text x="300" y="790" text-anchor="middle" fill="#94a3b8" font-size="14" font-weight="700" letter-spacing="1">MODULE DEPENDENCY FLOW</text>

  <rect x="45" y="805" width="105" height="35" rx="6" fill="#451a03" stroke="#f59e0b" stroke-width="1"/>
  <text x="97" y="817" text-anchor="middle" fill="#fde68a" font-size="9" font-weight="600">main.js</text>
  <text x="97" y="832" text-anchor="middle" fill="#64748b" font-size="8">Entry</text>

  <line x1="150" y1="822" x2="175" y2="822" stroke="#64748b" stroke-width="1.5" marker-end="url(#arrow)"/>

  <rect x="175" y="805" width="105" height="35" rx="6" fill="#2e1065" stroke="#8b5cf6" stroke-width="1"/>
  <text x="227" y="817" text-anchor="middle" fill="#ddd6fe" font-size="9" font-weight="600">state.js</text>
  <text x="227" y="832" text-anchor="middle" fill="#64748b" font-size="8">Data/Config</text>

  <line x1="280" y1="822" x2="305" y2="822" stroke="#64748b" stroke-width="1.5" marker-end="url(#arrow)"/>

  <rect x="305" y="805" width="105" height="35" rx="6" fill="#2e1065" stroke="#8b5cf6" stroke-width="1"/>
  <text x="357" y="817" text-anchor="middle" fill="#ddd6fe" font-size="9" font-weight="600">tabs.js</text>
  <text x="357" y="832" text-anchor="middle" fill="#64748b" font-size="8">Router</text>

  <line x1="410" y1="822" x2="435" y2="822" stroke="#64748b" stroke-width="1.5" marker-end="url(#arrow)"/>

  <rect x="435" y="805" width="120" height="35" rx="6" fill="#2e1065" stroke="#8b5cf6" stroke-width="1"/>
  <text x="495" y="817" text-anchor="middle" fill="#ddd6fe" font-size="9" font-weight="600">Feature Modules</text>
  <text x="495" y="832" text-anchor="middle" fill="#64748b" font-size="8">Business Logic</text>

  <!-- Branches -->
  <line x1="495" y1="840" x2="495" y2="852" stroke="#64748b" stroke-width="1"/>
  <line x1="360" y1="852" x2="630" y2="852" stroke="#64748b" stroke-width="1"/>

  <line x1="360" y1="852" x2="360" y2="865" stroke="#64748b" stroke-width="1.5" marker-end="url(#arrow)"/>
  <rect x="315" y="865" width="90" height="28" rx="5" fill="#064e3b" stroke="#10b981" stroke-width="1"/>
  <text x="360" y="882" text-anchor="middle" fill="#a7f3d0" font-size="8">components.css</text>

  <line x1="495" y1="852" x2="495" y2="865" stroke="#64748b" stroke-width="1.5" marker-end="url(#arrow)"/>
  <rect x="450" y="865" width="90" height="28" rx="5" fill="#500724" stroke="#ec4899" stroke-width="1"/>
  <text x="495" y="882" text-anchor="middle" fill="#fbcfe8" font-size="8">mock-db.js</text>

  <line x1="630" y1="852" x2="630" y2="865" stroke="#64748b" stroke-width="1.5" marker-end="url(#arrow)"/>
  <rect x="585" y="865" width="90" height="28" rx="5" fill="#1e3a5f" stroke="#3b82f6" stroke-width="1"/>
  <text x="630" y="882" text-anchor="middle" fill="#93bbfc" font-size="8">index.html</text>

  <!-- Bottom label -->
  <text x="600" y="870" text-anchor="middle" fill="#1e293b" font-size="1"> </text>
</svg>